<svg width="12" height="17" viewBox="0 0 12 17" fill="none" xmlns="http://www.w3.org/2000/svg">
<path d="M7.5293 16.1719C7.2832 16.1719 7.08398 15.9668 7.08398 15.7148C7.08398 13.8691 8.25 13.7402 8.25 12.832C8.25 11.9883 7.21875 11.7598 7.125 10.3184H6.84375C6.50977 10.3184 6.35742 10.0312 6.42773 9.75586L6.62695 8.99414C4.93945 8.43164 3.72656 6.4043 3.72656 3.97266C3.72656 1.71094 5.30859 0 7.59375 0C9.87305 0 11.4609 1.71094 11.4609 3.97266C11.4609 6.4043 10.248 8.43164 8.55469 9L8.75977 9.75586C8.83594 10.0312 8.67188 10.3184 8.33789 10.3184H8.04492C8.16797 11.2969 9.15234 11.5664 9.15234 12.832C9.15234 14.1328 7.99219 14.4316 7.99219 15.7148C7.99219 15.9668 7.78125 16.1719 7.5293 16.1719ZM3.06445 16.2715C2.83594 16.2715 2.66016 16.0781 2.66016 15.8496C2.66016 14.2148 3.65625 14.209 3.65625 13.459C3.65625 12.75 2.79492 12.6621 2.70117 11.4258H2.43164C2.12695 11.4258 1.98633 11.1738 2.04492 10.9277L2.22656 10.2305C0.914062 9.67383 0 8.04492 0 6.14062C0 4.31836 1.23633 2.91797 2.99414 2.8125C2.91797 3.1875 2.87109 3.56836 2.87109 3.97266C2.87109 6.26953 3.85547 8.31445 5.38477 9.32812C4.99805 9.79688 4.5293 10.1426 4.00195 10.3125L4.16016 10.9277C4.22461 11.1738 4.08984 11.4258 3.77344 11.4258H3.53906C3.67383 12.2227 4.47656 12.3574 4.47656 13.459C4.47656 14.584 3.48633 14.748 3.48633 15.8496C3.48633 16.0781 3.29883 16.2715 3.06445 16.2715Z" fill="white"/>
</svg>
