<svg width="13" height="12" viewBox="0 0 13 12" fill="none" xmlns="http://www.w3.org/2000/svg">
<path d="M4.33594 11.7832C3.58008 11.7832 3.17578 11.5312 2.77148 11.0801L0.509766 8.56641C0.105469 8.11523 0 7.81641 0 7.20117V4.58203C0 3.9668 0.105469 3.66797 0.509766 3.2168L2.77148 0.697266C3.17578 0.251953 3.58008 0 4.33594 0H7.92188C8.67773 0 9.09375 0.251953 9.49219 0.697266L11.7246 3.2168C12.1406 3.67969 12.2637 3.9668 12.2637 4.58203V7.20117C12.2637 7.81641 12.1582 8.11523 11.748 8.56641L9.49219 11.0801C9.08789 11.5312 8.67773 11.7832 7.92188 11.7832H4.33594ZM6.13477 6.90234C6.46875 6.90234 6.66211 6.71484 6.67383 6.36328L6.76172 3.41602C6.77344 3.05859 6.50391 2.80078 6.12891 2.80078C5.75391 2.80078 5.49023 3.05273 5.50195 3.41016L5.58984 6.36328C5.5957 6.70898 5.79492 6.90234 6.13477 6.90234ZM6.13477 8.91797C6.52734 8.91797 6.84961 8.64258 6.84961 8.25C6.84961 7.86914 6.5332 7.58203 6.13477 7.58203C5.74219 7.58203 5.41992 7.86914 5.41992 8.25C5.41992 8.63672 5.74219 8.91797 6.13477 8.91797Z" fill="white"/>
</svg>
