<svg width="14" height="13" viewBox="0 0 14 13" fill="none" xmlns="http://www.w3.org/2000/svg">
<path d="M0.550781 4.875H1.3418C1.89258 2.0918 4.33594 0 7.27734 0C10.6172 0 13.3301 2.71289 13.3301 6.05273C13.3301 9.39258 10.6172 12.1055 7.27734 12.1055C5.34375 12.1055 3.62109 11.1914 2.50781 9.74414C2.25 9.43359 2.30859 9.04102 2.57812 8.85352C2.86523 8.64844 3.20508 8.73633 3.43945 9.00586C4.32422 10.166 5.70117 10.9102 7.27734 10.9102C9.96094 10.9102 12.1348 8.74219 12.1348 6.05273C12.1348 3.36328 9.96094 1.18945 7.27734 1.18945C4.99805 1.18945 3.08789 2.75391 2.56055 4.875H3.31641C3.75 4.875 3.86133 5.20312 3.62695 5.52539L2.26758 7.42383C2.08008 7.68164 1.78711 7.6875 1.59961 7.42383L0.240234 5.53125C0 5.20312 0.111328 4.875 0.550781 4.875ZM7.27734 9.27539C7.17773 9.27539 7.08984 9.19336 7.08984 9.08789V8.58984C6.35156 8.54297 5.625 8.20898 5.41406 7.54688C5.38477 7.4707 5.36719 7.40039 5.36719 7.33008C5.36719 7.10742 5.53125 6.98438 5.73633 6.98438C5.91797 6.98438 6.02344 7.06641 6.11133 7.25977C6.28711 7.69922 6.61523 7.89844 7.08984 7.93359V6.31641L6.90234 6.26953C6.1582 6.09961 5.4375 5.75391 5.4375 4.88086C5.4375 4.01367 6.20508 3.50391 7.08984 3.44531V2.94727C7.08984 2.84766 7.17773 2.75977 7.27734 2.75977C7.37695 2.75977 7.46484 2.84766 7.46484 2.94727V3.44531C8.2793 3.51562 9.09375 4.01367 9.09375 4.70508C9.09375 4.93359 8.90625 5.03906 8.73047 5.03906C8.54883 5.03906 8.42578 4.94531 8.34375 4.75781C8.20898 4.36523 7.89844 4.14258 7.46484 4.0957V5.6543L7.68164 5.70117C8.50195 5.89453 9.19336 6.22852 9.19336 7.11328C9.19336 8.07422 8.39062 8.53125 7.46484 8.58984V9.08789C7.46484 9.19336 7.37695 9.27539 7.27734 9.27539ZM6.21094 4.82227C6.21094 5.25586 6.60352 5.45508 7.08984 5.56641V4.0957C6.62695 4.14844 6.21094 4.37695 6.21094 4.82227ZM8.42578 7.18359C8.42578 6.68555 7.96875 6.52148 7.46484 6.4043V7.93945C7.97461 7.89844 8.42578 7.69922 8.42578 7.18359Z" fill="white"/>
</svg>
