<svg width="15" height="11" viewBox="0 0 15 11" fill="none" xmlns="http://www.w3.org/2000/svg">
<path d="M7.17188 5.71289C6.99023 5.71289 6.81445 5.63672 6.62695 5.47266L0.761719 0.28125C1.07812 0.0878906 1.44141 0 1.92188 0H12.4219C12.9082 0 13.2656 0.0878906 13.582 0.28125L7.7168 5.47266C7.5293 5.63672 7.35352 5.71289 7.17188 5.71289ZM0.146484 9.24609C0.0585938 9.01758 0 8.74219 0 8.37305V1.89844C0 1.5 0.0703125 1.19531 0.140625 1.04883L4.49414 4.9043L0.146484 9.24609ZM14.1973 9.24609L9.84961 4.9043L14.2031 1.04883C14.2734 1.19531 14.3438 1.5 14.3438 1.89844V8.37305C14.3438 8.74219 14.2852 9.01758 14.1973 9.24609ZM1.77539 10.2773C1.3418 10.2773 1.00195 10.1777 0.767578 10.0312L5.24414 5.55469L6.04688 6.26953C6.41016 6.58594 6.7793 6.74414 7.17188 6.74414C7.56445 6.74414 7.93359 6.58594 8.29688 6.26953L9.09961 5.55469L13.5762 10.0312C13.3418 10.1777 13.002 10.2773 12.5684 10.2773H1.77539Z" fill="white"/>
</svg>
