<svg width="6" height="11" viewBox="0 0 6 11" fill="none" xmlns="http://www.w3.org/2000/svg">
<path d="M5.95898 5.18555C5.95898 5.38477 5.88867 5.55469 5.73047 5.70703L1.16016 10.1777C1.03125 10.3066 0.873047 10.3711 0.685547 10.3711C0.304688 10.3711 0 10.0781 0 9.69141C0 9.50391 0.0820312 9.33398 0.205078 9.20508L4.33008 5.18555L0.205078 1.16602C0.0761719 1.03125 0 0.861328 0 0.673828C0 0.292969 0.304688 0 0.685547 0C0.873047 0 1.03125 0.0644531 1.16016 0.193359L5.73047 4.66406C5.88281 4.81641 5.95898 4.98633 5.95898 5.18555Z" fill="white"/>
</svg>
