<svg width="12" height="13" viewBox="0 0 12 13" fill="none" xmlns="http://www.w3.org/2000/svg">
<path d="M10.1309 10.2012C8.44922 11.8828 6.09961 12.0176 4.24219 10.1602L0.263672 6.18164C0 5.91797 0 5.49609 0.263672 5.23242C0.527344 4.96875 0.943359 4.96875 1.21289 5.23242L3.72656 7.74609C3.76758 7.57031 3.81445 7.38867 3.88477 7.20117L0.269531 3.58594C0.00585938 3.32812 0 2.90039 0.269531 2.63672C0.533203 2.37305 0.955078 2.37305 1.21875 2.63672L4.55273 5.96484C4.65234 5.82422 4.75781 5.68945 4.86914 5.55469L1.23633 1.92188C0.972656 1.66406 0.972656 1.23633 1.23633 0.972656C1.50586 0.708984 1.92188 0.708984 2.19141 0.972656L5.86523 4.64648C6.01172 4.54688 6.1582 4.46484 6.31055 4.40039L3.12891 1.21875C2.85938 0.955078 2.85938 0.527344 3.12891 0.263672C3.39258 0 3.81445 0 4.07227 0.269531L8.15625 4.34766C6.89648 5.85352 7.32422 7.26562 7.99805 7.99805C8.12695 8.14453 8.36719 8.15039 8.49609 8.00977C8.64258 7.86914 8.64844 7.65234 8.51953 7.50586C7.8457 6.76172 7.94531 5.68945 8.70703 4.80469C8.83008 4.6582 8.84766 4.55273 8.77148 4.33594L8.11523 2.52539C7.92188 1.96875 7.92773 1.62891 8.22656 1.36523C8.49023 1.125 8.83008 1.14258 9.05859 1.40039C9.26367 1.63477 9.5918 2.29688 9.85547 2.80664C10.3887 3.81445 10.9863 4.96289 11.2324 5.99414C11.707 7.59375 11.4023 8.92969 10.1309 10.2012Z" fill="white"/>
</svg>
