<svg width="9" height="12" viewBox="0 0 9 12" fill="none" xmlns="http://www.w3.org/2000/svg">
<path d="M1.35352 11.6719C0.462891 11.6719 0 11.1973 0 10.2363V6.08203C0 5.23828 0.369141 4.76367 1.07227 4.66992V3.28125C1.07227 1.11914 2.50195 0 4.10156 0C5.70117 0 7.13086 1.11914 7.13086 3.28125V4.67578C7.83398 4.76953 8.19727 5.23828 8.19727 6.08203V10.2363C8.19727 11.1973 7.73438 11.6719 6.84375 11.6719H1.35352ZM2.16797 3.17578V4.65234H6.03516V3.17578C6.03516 1.79883 5.14453 1.04883 4.10156 1.04883C3.05273 1.04883 2.16797 1.79883 2.16797 3.17578Z" fill="white"/>
</svg>
