<svg width="12" height="14" viewBox="0 0 12 14" fill="none" xmlns="http://www.w3.org/2000/svg">
<path d="M5.97656 13.2012C2.67773 13.2012 0 10.5234 0 7.22461C0 4.3125 2.08008 1.88672 4.8457 1.35352V0.527344C4.8457 0.105469 5.13281 0 5.46094 0.228516L7.32422 1.54102C7.59375 1.73438 7.58789 2.01562 7.32422 2.20312L5.45508 3.51562C5.13281 3.73828 4.8457 3.63281 4.8457 3.2168V2.37305C2.63672 2.88281 0.996094 4.85742 0.996094 7.22461C0.996094 9.97852 3.22266 12.2051 5.97656 12.2051C8.73047 12.2051 10.957 9.97852 10.957 7.22461C10.957 5.55469 10.1367 4.08398 8.89453 3.19336C8.6543 3.01172 8.57812 2.73633 8.72461 2.49023C8.87109 2.25586 9.20508 2.18555 9.46289 2.38477C10.9746 3.47461 11.9531 5.21484 11.9531 7.22461C11.9531 10.5234 9.27539 13.2012 5.97656 13.2012ZM7.86914 6.04688L6.4043 6.4043C6.26953 6.43359 6.2168 6.49219 6.2168 6.7207V8.88281C6.2168 9.7793 5.61328 10.4238 4.7168 10.4238C4.08984 10.4238 3.69141 10.0371 3.69141 9.50391C3.69141 8.89453 4.16016 8.55469 4.73438 8.41406L5.30859 8.26172C5.625 8.17383 5.6543 8.12109 5.6543 7.8457V5.02148C5.6543 4.65234 5.71289 4.58789 6.02344 4.51172L7.8457 4.06055C8.17969 3.97266 8.26172 4.08398 8.26172 4.32422V5.54883C8.26172 5.90625 8.17383 5.98242 7.86914 6.04688Z" fill="white"/>
</svg>
