<svg width="13" height="13" viewBox="0 0 13 13" fill="none" xmlns="http://www.w3.org/2000/svg">
<path d="M6.05273 12.1055C2.71289 12.1055 0 9.39258 0 6.05273C0 2.71289 2.71289 0 6.05273 0C9.39258 0 12.1055 2.71289 12.1055 6.05273C12.1055 9.39258 9.39258 12.1055 6.05273 12.1055ZM6.05273 1.18945C4.89844 1.18945 3.83789 1.59375 3.00586 2.26172L9.84375 9.09961C10.5117 8.26758 10.916 7.20703 10.916 6.05273C10.916 3.36328 8.74219 1.18945 6.05273 1.18945ZM6.05273 10.9102C7.20117 10.9102 8.26172 10.5117 9.09375 9.84961L2.25586 3.01172C1.58789 3.84375 1.18945 4.9043 1.18945 6.05273C1.18945 8.74219 3.36328 10.9102 6.05273 10.9102Z" fill="white"/>
</svg>
