<svg width="17" height="11" viewBox="0 0 17 11" fill="none" xmlns="http://www.w3.org/2000/svg">
<path d="M11.0859 5.14453C9.80859 5.14453 8.72461 4.00195 8.72461 2.54883C8.72461 1.11914 9.81445 0 11.0859 0C12.3574 0 13.4473 1.0957 13.4473 2.53711C13.4473 4.00195 12.3633 5.14453 11.0859 5.14453ZM4.3125 5.27344C3.19922 5.27344 2.25586 4.27734 2.25586 3.01758C2.25586 1.76953 3.20508 0.796875 4.3125 0.796875C5.41992 0.796875 6.36914 1.75195 6.36914 3.00586C6.36914 4.27734 5.42578 5.27344 4.3125 5.27344ZM1.08398 10.5938C0.292969 10.5938 0 10.2656 0 9.68555C0 8.09766 1.69336 6.16406 4.3125 6.16406C5.36719 6.16406 6.21094 6.47461 6.85547 6.89062C5.53711 7.92188 4.85156 9.69727 5.47266 10.5938H1.08398ZM7.42969 10.5879C6.46875 10.5879 6.13477 10.3008 6.13477 9.76172C6.13477 8.25586 8.04492 6.18164 11.0801 6.18164C14.1211 6.18164 16.0312 8.25586 16.0312 9.76172C16.0312 10.3008 15.6973 10.5879 14.7363 10.5879H7.42969Z" fill="white"/>
</svg>
