<svg width="13" height="13" viewBox="0 0 13 13" fill="none" xmlns="http://www.w3.org/2000/svg">
<path d="M7.40039 12.4043C6.83203 12.4043 6.62695 11.9648 6.44531 11.3672L5.54297 8.39062C5.41992 7.97461 5.44336 7.72266 5.68945 7.45312L11.7188 0.925781C11.7949 0.84375 11.7891 0.744141 11.7246 0.679688C11.6602 0.621094 11.5664 0.615234 11.4844 0.685547L4.96289 6.73242C4.67578 6.99609 4.44141 7.00195 4.03125 6.87891L0.990234 5.94727C0.416016 5.77734 0 5.56641 0 5.00977C0 4.55273 0.380859 4.23633 0.884766 4.04297L11.0332 0.158203C11.2969 0.0585938 11.5312 0 11.7246 0C12.1406 0 12.4043 0.263672 12.4043 0.679688C12.4043 0.878906 12.3457 1.10742 12.2461 1.37109L8.37891 11.4785C8.16211 12.041 7.8457 12.4043 7.40039 12.4043Z" fill="white"/>
</svg>
