<svg width="11" height="11" viewBox="0 0 11 11" fill="none" xmlns="http://www.w3.org/2000/svg">
<path d="M1.92188 10.9395C0.65625 10.9395 0 10.2891 0 9.03516V1.9043C0 0.650391 0.65625 0 1.92188 0H9.01758C10.2832 0 10.9395 0.65625 10.9395 1.9043V9.03516C10.9395 10.2891 10.2832 10.9395 9.01758 10.9395H1.92188ZM5.47852 8.2793C5.81836 8.2793 6.05859 8.03906 6.05859 7.70508V6.03516H7.72852C8.0625 6.03516 8.30273 5.80078 8.30273 5.4668C8.30273 5.12695 8.0625 4.88672 7.72852 4.88672H6.05859V3.22266C6.05859 2.88281 5.81836 2.64258 5.47852 2.64258C5.14453 2.64258 4.91016 2.88281 4.91016 3.22266V4.88672H3.24609C2.90625 4.88672 2.66602 5.12695 2.66602 5.4668C2.66602 5.80078 2.91211 6.03516 3.24609 6.03516H4.91016V7.70508C4.91016 8.0332 5.14453 8.2793 5.47852 8.2793Z" fill="white"/>
</svg>
