<svg width="13" height="13" viewBox="0 0 13 13" fill="none" xmlns="http://www.w3.org/2000/svg">
<path d="M6.05273 12.1055C2.71289 12.1055 0 9.39258 0 6.05273C0 2.71289 2.71289 0 6.05273 0C9.39258 0 12.1055 2.71289 12.1055 6.05273C12.1055 9.39258 9.39258 12.1055 6.05273 12.1055ZM6.05273 7.01367C7.19531 7.02539 8.08594 6.04688 8.08594 4.78125C8.08594 3.58594 7.18945 2.58984 6.05273 2.58984C4.91016 2.58984 4.00781 3.58594 4.01367 4.78125C4.01367 6.04688 4.9043 7.00781 6.05273 7.01367ZM6.05273 11.1152C7.36523 11.1152 8.75391 10.5703 9.63867 9.61523C8.96484 8.5957 7.61719 8.02734 6.05273 8.02734C4.4707 8.02734 3.12891 8.60742 2.46094 9.61523C3.3457 10.5703 4.74023 11.1152 6.05273 11.1152Z" fill="white"/>
</svg>
