<svg width="13" height="13" viewBox="0 0 13 13" fill="none" xmlns="http://www.w3.org/2000/svg">
<path d="M6.05273 12.1055C2.71289 12.1055 0 9.39258 0 6.05273C0 2.71289 2.71289 0 6.05273 0C9.39258 0 12.1055 2.71289 12.1055 6.05273C12.1055 9.39258 9.39258 12.1055 6.05273 12.1055ZM5.91797 7.27148C6.25195 7.27148 6.46875 7.07227 6.48633 6.82031C6.48633 6.79688 6.48633 6.77344 6.48633 6.75C6.50977 6.43359 6.7207 6.22266 7.11914 5.96484C7.7168 5.57812 8.10938 5.22656 8.10938 4.51758C8.10938 3.49805 7.19531 2.92383 6.11133 2.92383C5.0625 2.92383 4.35938 3.39844 4.16602 3.9668C4.13086 4.07227 4.10742 4.17188 4.10742 4.28906C4.10742 4.58203 4.3418 4.76367 4.58789 4.76367C4.81055 4.76367 4.96289 4.66992 5.08594 4.51172L5.17969 4.38281C5.39062 4.04883 5.67188 3.87891 6.03516 3.87891C6.52734 3.87891 6.85547 4.16602 6.85547 4.57617C6.85547 4.96289 6.60352 5.15039 6.08203 5.50781C5.6543 5.8125 5.33789 6.12305 5.33789 6.67969V6.74414C5.33789 7.08984 5.54297 7.27148 5.91797 7.27148ZM5.90625 9.13477C6.29883 9.13477 6.62695 8.85352 6.62695 8.4668C6.62695 8.08008 6.30469 7.79297 5.90625 7.79297C5.51367 7.79297 5.19141 8.08594 5.19141 8.4668C5.19141 8.84766 5.51953 9.13477 5.90625 9.13477Z" fill="white"/>
</svg>
