<svg width="14" height="15" viewBox="0 0 14 15" fill="none" xmlns="http://www.w3.org/2000/svg">
<path d="M0 10.916V6.39844C0 4.78711 0.896484 3.88477 2.51367 3.88477H4.75195V8.17969C4.75195 8.4668 4.99805 8.71289 5.29102 8.71289C5.58984 8.71289 5.83594 8.4668 5.83594 8.17969V3.88477H4.75195V2.29688L4.79883 1.42383L4.48828 1.79883L3.65039 2.68945C3.55664 2.79492 3.41602 2.85352 3.28125 2.85352C3.01172 2.85352 2.80078 2.66016 2.80078 2.38477C2.80078 2.24414 2.85938 2.13867 2.95312 2.03906L4.88672 0.181641C5.02148 0.046875 5.15039 0 5.29102 0C5.4375 0 5.56641 0.046875 5.70117 0.181641L7.62891 2.03906C7.72852 2.13867 7.78711 2.24414 7.78711 2.38477C7.78711 2.66016 7.56445 2.85352 7.30078 2.85352C7.16602 2.85352 7.03125 2.79492 6.9375 2.68945L6.09961 1.79883L5.78906 1.42383L5.83594 2.29688V3.88477H8.07422C9.68555 3.88477 10.5879 4.78711 10.5879 6.39844V7.63477C8.47852 7.63477 6.74414 9.375 6.74414 11.4844C6.74414 12.1875 6.9375 12.8555 7.27734 13.4297H2.51367C0.896484 13.4297 0 12.5273 0 10.916ZM10.5938 14.5078C8.94141 14.5078 7.57617 13.1484 7.57617 11.4902C7.57617 9.83789 8.94141 8.47266 10.5938 8.47266C12.2461 8.47266 13.6055 9.83789 13.6055 11.4902C13.6055 13.1367 12.2285 14.5078 10.5938 14.5078ZM10.2246 13.125C10.3711 13.125 10.5 13.0664 10.5703 12.9727L12.2695 10.6348C12.3281 10.5527 12.3574 10.4648 12.3574 10.3887C12.3574 10.1543 12.1641 9.97852 11.9355 9.97852C11.7891 9.97852 11.666 10.0488 11.584 10.1602L10.2012 12.0762L9.52734 11.332C9.45117 11.25 9.3457 11.1973 9.21094 11.1973C8.98828 11.1973 8.79492 11.3672 8.79492 11.6133C8.79492 11.7129 8.83594 11.8301 8.91211 11.918L9.89648 12.9902C9.97852 13.084 10.1133 13.125 10.2246 13.125Z" fill="white"/>
</svg>
