<svg width="18" height="13" viewBox="0 0 18 13" fill="none" xmlns="http://www.w3.org/2000/svg">
<path d="M0.46875 10.7578C0.210938 10.7578 0 10.541 0 10.2832C0 10.0254 0.210938 9.81445 0.46875 9.81445H4.58203C4.9043 9.05273 5.45508 8.25 6.16992 7.54688C4.62305 6.46289 3.375 4.82812 3.375 2.91797C3.375 1.2832 4.54102 0 6.04688 0C8.28516 0 9.75 2.42578 9.87891 5.51953C10.2715 5.44336 10.6758 5.40234 11.0977 5.40234C11.8535 5.40234 12.3398 5.77734 12.3398 6.36328C12.3398 6.83203 12.082 7.3125 12.082 7.52344C12.082 7.59375 12.123 7.62305 12.1699 7.62305C12.5801 7.62305 14.168 5.64258 15.1934 5.64258C16.3594 5.64258 15.7559 7.58789 16.3887 7.58789C16.5879 7.58789 16.7578 7.41797 16.9629 7.41797C17.1914 7.41797 17.3379 7.59961 17.3379 7.82227C17.3379 8.00391 17.2383 8.14453 17.0977 8.23828C16.8574 8.39648 16.5469 8.46094 16.3008 8.46094C14.8301 8.46094 15.3691 6.63281 14.9355 6.63281C14.4551 6.63281 13.0254 8.66602 11.8359 8.66602C11.4023 8.66602 11.0801 8.39648 11.0801 7.95117C11.0801 7.44141 11.3555 7.04297 11.3555 6.5332C11.3555 6.38086 11.2383 6.29297 11.0332 6.29297C10.6348 6.29297 10.248 6.33398 9.87891 6.41602C9.83789 7.67578 9.62695 8.83594 9.27539 9.81445H17.1328C17.3906 9.81445 17.6074 10.0254 17.6074 10.2832C17.6074 10.541 17.3906 10.7578 17.1328 10.7578H8.85938C8.15625 12.082 7.125 12.9023 5.87109 12.9023C4.76953 12.9023 4.23633 12.2285 4.23633 11.2852C4.23633 11.1152 4.25391 10.9395 4.28906 10.7578H0.46875ZM4.27148 2.91797C4.27148 4.74023 5.58398 6.13477 6.80859 6.97852C7.44727 6.46875 8.18555 6.04102 8.99414 5.75977C8.94141 3.07617 7.80469 0.890625 6.04688 0.890625C5.04492 0.890625 4.27148 1.77539 4.27148 2.91797ZM0.304688 8.47266C0.146484 8.32031 0.146484 8.0918 0.304688 7.93359L1.03711 7.20703L0.304688 6.47461C0.146484 6.32812 0.146484 6.09375 0.304688 5.94141C0.457031 5.7832 0.685547 5.7832 0.837891 5.94141L1.57617 6.66797L2.30859 5.94141C2.46094 5.78906 2.68945 5.7832 2.8418 5.94141C3 6.09375 3 6.32227 2.8418 6.47461L2.10938 7.20703L2.8418 7.93359C3 8.08594 3 8.32031 2.8418 8.47266C2.68945 8.625 2.46094 8.625 2.30859 8.47266L1.57617 7.74023L0.837891 8.47266C0.685547 8.61914 0.457031 8.625 0.304688 8.47266ZM7.44141 8.28516C7.26562 8.19727 7.08398 8.10352 6.90234 8.00391C6.29297 8.57227 5.81836 9.21094 5.51953 9.81445H8.32031C8.67188 8.94141 8.90625 7.86328 8.9707 6.69141C8.4668 6.89062 8.00391 7.1543 7.58203 7.45312C7.66406 7.5 7.75195 7.54102 7.82812 7.58203C7.99805 7.66406 8.07422 7.80469 8.07422 7.94531C8.07422 8.15039 7.89844 8.33789 7.66406 8.33789C7.59375 8.33789 7.52344 8.32031 7.44141 8.28516ZM5.15039 11.1152C5.15039 11.6426 5.41406 12.0117 5.97656 12.0117C6.69141 12.0117 7.33008 11.543 7.83398 10.7578H5.18555C5.16211 10.8809 5.15039 11.0039 5.15039 11.1152Z" fill="white"/>
</svg>
