<svg width="14" height="14" viewBox="0 0 14 14" fill="none" xmlns="http://www.w3.org/2000/svg">
<path d="M7.3125 12.668C6.43945 13.5469 5.51953 13.5527 4.62891 12.6621L0.890625 8.93555C0 8.05078 0.0175781 7.11914 0.884766 6.25195L6.63867 0.509766C7.0957 0.0527344 7.35938 0 8.02148 0H10.248C10.8926 0 11.1152 0.158203 11.584 0.626953L12.9258 1.96875C13.4004 2.44336 13.5527 2.66016 13.5527 3.30469V5.53125C13.5527 6.19336 13.5117 6.46289 13.0488 6.91992L7.3125 12.668ZM9.2168 4.875C9.69727 4.875 10.0605 4.5 10.0605 4.03125C10.0605 3.5625 9.69727 3.19336 9.2168 3.19336C8.74219 3.19336 8.37891 3.5625 8.37891 4.03125C8.37891 4.5 8.74219 4.875 9.2168 4.875Z" fill="white"/>
</svg>
